<?xml version="1.0" standalone="no"?>
<!DOCTYPE svg PUBLIC "-//W3C//DTD SVG 20010904//EN"
 "http://www.w3.org/TR/2001/REC-SVG-20010904/DTD/svg10.dtd">
<svg version="1.0" xmlns="http://www.w3.org/2000/svg"
 width="16.000000pt" height="16.000000pt" viewBox="0 0 16.000000 16.000000"
 preserveAspectRatio="xMidYMid meet">
<metadata>
Created by potrace 1.11, written by Peter Selinger 2001-2013
</metadata>
<g transform="translate(0.000000,16.000000) scale(0.002286,-0.002286)"
fill="#000000" stroke="none">
<path d="M0 3500 l0 -3500 3500 0 3500 0 0 3500 0 3500 -3500 0 -3500 0 0
-3500z m1749 2682 c140 -280 174 -342 193 -346 24 -6 715 -106 733 -107 6 0
-115 -122 -267 -272 l-278 -272 65 -374 c36 -206 63 -377 61 -379 -3 -2 -155
75 -339 172 -184 97 -337 176 -340 176 -4 0 -158 -79 -342 -176 -185 -97 -338
-175 -339 -173 -2 2 25 173 61 379 l65 375 -279 272 c-153 150 -273 273 -266
273 21 0 755 109 758 112 2 2 78 157 171 346 92 188 169 341 171 339 1 -2 79
-157 172 -345z m4781 -582 l0 -930 -1280 0 -1280 0 0 -820 0 -820 1280 0 1280
0 0 -1280 0 -1280 -230 0 -230 0 -2 1048 -3 1047 -2565 0 -2565 0 -3 -1047 -2
-1048 -230 0 -230 0 0 1280 0 1280 1515 0 1515 0 0 1750 0 1750 1515 0 1515 0
0 -930z"/>
<path d="M1440 5812 c-171 -57 -295 -203 -323 -381 -38 -248 140 -485 393
-523 231 -34 456 116 515 342 22 83 16 202 -15 282 -44 116 -150 223 -267 269
-80 31 -226 36 -303 11z"/>
<path d="M3970 5600 l0 -470 1048 2 1047 3 0 465 0 465 -1047 3 -1048 2 0
-470z"/>
</g>
</svg>
